<?xml version="1.0" encoding="utf-8"?>
<svg viewBox="100 100 250 250" width="250" height="250" xmlns="http://www.w3.org/2000/svg" xmlns:bx="https://boxy-svg.com">
  <path style="fill: rgb(109, 193, 255); stroke: rgb(109, 193, 255); transform-origin: 89.5551px 120.909px;" transform="matrix(1.078271985054, 0, 0, 1.064416050911, -59.586979494919, -100.809490102536)" d="M 259.456091986 239.488 L 281.343908014 239.488 L 288.133664076 268.809877345 A 48.173 48.173 0 0 1 300.322552019 275.84713508 L 329.110920718 267.066297643 L 340.054828732 286.021702357 L 318.056216096 306.562742265 A 48.173 48.173 0 0 1 318.056216096 320.637257735 L 340.054828732 341.178297643 L 329.110920718 360.133702357 L 300.322552019 351.35286492 A 48.173 48.173 0 0 1 288.133664076 358.390122655 L 281.343908014 387.712 L 259.456091986 387.712 L 252.666335924 358.390122655 A 48.173 48.173 0 0 1 240.477447981 351.35286492 L 211.689079282 360.133702357 L 200.745171268 341.178297643 L 222.743783904 320.637257735 A 48.173 48.173 0 0 1 222.743783904 306.562742265 L 200.745171268 286.021702357 L 211.689079282 267.066297643 L 240.477447981 275.84713508 A 48.173 48.173 0 0 1 252.666335924 268.809877345 Z M 270.4 288.4 A 25.2 25.2 0 0 0 270.4 338.8 A 25.2 25.2 0 0 0 270.4 288.4" bx:shape="cog 270.4 313.6 25.2 48.173 74.112 0.44 6 1@ca803e70"/>
  <path d="M 225 225 m -125 0 a 125 125 0 1 0 250 0 a 125 125 0 1 0 -250 0 Z M 225 225 m -80 0 a 80 80 0 0 1 160 0 a 80 80 0 0 1 -160 0 Z" style="fill: rgb(255, 182, 90); stroke: rgb(255, 182, 90);" transform="matrix(1, 0, 0, 1, 7.105427357601002e-15, 0)" bx:shape="ring 225 225 80 80 125 125 1@4a416f15"/>
</svg>